<?xml version="1.0" standalone="no"?>
<!DOCTYPE svg PUBLIC "-//W3C//DTD SVG 20010904//EN"
 "http://www.w3.org/TR/2001/REC-SVG-20010904/DTD/svg10.dtd">
<svg version="1.0" xmlns="http://www.w3.org/2000/svg"
 width="640.000000pt" height="640.000000pt" viewBox="0 0 640.000000 640.000000"
 preserveAspectRatio="xMidYMid meet">
<metadata>
Created by potrace 1.11, written by Peter Selinger 2001-2013
</metadata>
<g transform="translate(0.000000,640.000000) scale(0.100000,-0.100000)"
fill="#000000" stroke="none">
<path d="M2955 6329 c-640 -48 -1263 -292 -1767 -690 -133 -105 -402 -374
-508 -509 -357 -450 -580 -983 -656 -1565 -24 -179 -24 -561 0 -740 76 -582
299 -1115 656 -1565 106 -135 375 -404 508 -509 358 -283 766 -484 1207 -596
536 -136 1074 -136 1610 0 441 112 849 313 1207 596 133 105 402 374 508 509
357 450 580 983 656 1565 24 179 24 561 0 740 -76 582 -299 1115 -656 1565
-106 135 -375 404 -508 509 -637 503 -1448 751 -2257 690z m439 -624 c203 -11
483 -74 688 -156 192 -76 451 -221 586 -327 l23 -18 -258 -269 c-141 -149
-260 -271 -263 -273 -3 -1 -1 44 4 100 12 130 -3 271 -36 336 -62 125 -188
123 -385 -7 -89 -59 -225 -165 -321 -253 -30 -26 -58 -46 -62 -43 -5 3 -46 76
-91 163 -159 305 -230 415 -319 495 -102 92 -188 73 -249 -56 -47 -98 -87
-284 -106 -495 -4 -44 -14 -80 -24 -92 -14 -18 -61 -36 -146 -57 -27 -6 -107
49 -260 177 -144 121 -251 195 -307 212 -53 16 -87 -2 -107 -56 -13 -35 -13
-50 1 -135 16 -89 72 -274 146 -480 l31 -84 -35 -41 c-19 -22 -37 -51 -40 -63
-8 -30 -31 -30 -204 1 -290 52 -412 54 -462 9 -23 -20 -23 -74 -1 -121 22 -48
193 -216 316 -312 114 -89 146 -137 127 -194 -14 -44 -18 -47 -131 -102 -209
-102 -357 -212 -400 -297 -24 -47 -27 -113 -6 -154 26 -50 108 -117 217 -177
169 -93 211 -120 221 -137 14 -27 -32 -103 -141 -234 -105 -125 -160 -218
-160 -267 0 -44 46 -85 105 -94 63 -9 249 2 344 21 41 8 77 12 80 9 3 -2 -13
-42 -36 -87 -36 -72 -66 -108 -249 -300 -114 -120 -212 -216 -218 -214 -26 8
-193 275 -271 432 -127 256 -206 513 -247 805 -17 123 -17 524 0 645 56 391
194 769 392 1070 377 573 958 966 1610 1089 139 26 373 45 485 39 28 -1 99 -5
159 -8z m-465 -301 c70 -63 141 -173 277 -430 63 -120 123 -227 131 -236 23
-25 43 -22 84 15 304 268 470 378 573 379 94 2 121 -61 121 -277 0 -82 -4
-176 -8 -209 l-9 -58 -538 -563 -538 -562 -62 -12 c-151 -30 -346 -113 -474
-201 -89 -62 -218 -194 -264 -271 -64 -109 -77 -160 -77 -305 l0 -131 -155
-162 c-149 -156 -155 -162 -158 -133 -6 54 -18 57 -161 33 -142 -24 -300 -29
-343 -12 -56 22 -31 78 119 263 122 151 153 200 153 246 0 63 -22 82 -244 203
-108 58 -178 115 -202 161 -48 94 60 203 352 355 172 90 194 113 194 197 0 74
-32 117 -170 227 -204 164 -323 300 -290 333 21 21 204 11 394 -23 253 -44
247 -45 290 41 10 20 29 47 42 59 35 33 31 68 -31 236 -117 322 -155 523 -99
523 20 0 90 -36 134 -69 19 -14 102 -82 185 -149 151 -124 235 -182 267 -182
22 0 164 47 189 63 29 18 46 79 63 234 18 154 57 325 88 386 46 92 90 100 167
31z m2209 -646 c214 -271 403 -676 475 -1023 43 -206 52 -298 52 -540 0 -317
-33 -529 -126 -810 -235 -711 -784 -1286 -1479 -1552 -285 -109 -543 -154
-870 -154 -527 1 -1020 164 -1442 478 l-100 75 34 36 c19 21 99 104 177 186
l141 149 128 48 c69 26 129 46 131 44 5 -5 -15 -102 -64 -320 -43 -185 -49
-286 -22 -328 48 -74 170 7 380 253 49 58 93 109 97 114 5 4 31 -37 60 -93 74
-145 129 -186 190 -144 40 28 58 53 105 147 44 89 44 89 55 60 53 -139 136
-255 193 -269 95 -24 182 56 280 257 36 73 81 175 99 225 18 51 38 93 43 93 6
0 106 -71 222 -158 358 -269 490 -332 566 -272 72 57 56 198 -54 487 -47 122
-61 234 -39 312 l12 44 161 -9 c89 -5 225 -9 302 -9 165 0 206 14 239 79 18
37 18 41 2 91 -26 82 -107 189 -258 337 -154 151 -166 172 -133 241 31 66 93
112 191 142 278 84 446 273 380 428 -18 44 -97 114 -159 142 -79 36 -212 72
-338 91 -63 9 -124 24 -136 31 -35 23 -56 92 -51 171 l3 69 131 129 c137 135
176 192 176 259 0 64 -41 105 -127 127 -27 6 -52 13 -54 15 -5 3 361 383 370
383 4 0 30 -28 57 -62z m-351 -403 c91 -38 62 -109 -117 -285 -145 -142 -155
-161 -148 -275 6 -85 36 -149 84 -177 18 -11 95 -29 175 -43 220 -37 341 -85
408 -160 25 -29 31 -44 31 -83 0 -119 -143 -240 -361 -306 -125 -38 -203 -108
-230 -210 -20 -75 -3 -104 150 -256 201 -198 280 -315 253 -375 -22 -49 -90
-52 -539 -29 -120 7 -122 6 -146 -18 -33 -34 -51 -122 -43 -215 4 -51 21 -112
56 -209 79 -212 106 -346 80 -395 -16 -29 -66 -24 -150 17 -84 40 -168 97
-395 269 -174 131 -229 164 -254 148 -8 -5 -35 -61 -58 -124 -103 -275 -219
-459 -290 -459 -17 0 -42 9 -57 21 -29 23 -79 111 -121 211 -47 113 -88 127
-120 40 -45 -119 -110 -222 -140 -222 -20 0 -52 43 -95 130 -23 47 -51 95 -63
107 -39 43 -58 32 -170 -99 -159 -187 -269 -287 -302 -274 -28 10 -15 110 50
385 40 170 48 249 26 274 -15 19 -53 22 -80 7 -10 -5 -42 -19 -72 -30 l-54
-22 75 79 c41 43 132 138 203 211 l127 133 28 -19 c90 -64 292 -143 452 -178
121 -27 420 -26 540 0 361 78 654 272 775 511 119 234 77 467 -122 676 -115
120 -278 227 -424 278 l-31 11 51 52 c28 29 239 250 469 491 l417 438 49 -6
c27 -3 64 -12 83 -20z m-1222 -1874 c108 -29 215 -81 263 -129 67 -67 68 -134
2 -200 -139 -139 -467 -198 -729 -131 -239 61 -360 184 -292 295 50 82 212
157 406 188 68 10 271 -3 350 -23z"/>
<path d="M2970 4173 c-64 -23 -152 -114 -169 -175 -34 -120 39 -242 179 -299
53 -21 155 -17 216 10 61 26 127 91 149 145 66 159 -75 337 -265 335 -36 0
-85 -8 -110 -16z m216 -71 c70 -36 114 -102 114 -173 l0 -41 -35 30 c-59 52
-138 55 -201 7 -53 -40 -63 -111 -23 -154 19 -20 19 -21 1 -21 -38 0 -127 55
-155 96 -33 48 -38 113 -13 162 21 41 90 98 134 111 51 14 132 6 178 -17z m47
-234 c19 -25 19 -28 3 -52 -35 -54 -116 -37 -116 24 0 59 76 78 113 28z"/>
<path d="M3006 4105 c-143 -51 -182 -190 -79 -287 15 -15 45 -34 65 -42 l37
-16 -15 36 c-18 44 -7 88 34 127 55 53 131 61 200 22 42 -24 42 -24 42 -3 0
38 -40 105 -78 131 -67 46 -138 57 -206 32z"/>
<path d="M2191 3998 c-120 -46 -198 -171 -171 -275 25 -100 115 -182 224 -205
179 -38 366 114 341 279 -13 86 -109 186 -203 213 -57 16 -132 11 -191 -12z
m177 -53 c57 -17 115 -62 138 -106 7 -15 14 -49 14 -75 l0 -46 -35 30 c-65 58
-157 52 -214 -13 -39 -45 -41 -91 -6 -133 l25 -30 -32 7 c-18 5 -51 17 -73 28
-158 81 -130 283 47 338 57 18 75 18 136 0z m78 -238 c22 -19 26 -29 20 -51
-8 -32 -44 -51 -80 -42 -50 12 -59 82 -14 104 34 16 44 14 74 -11z"/>
<path d="M2260 3941 c-88 -17 -170 -98 -170 -168 0 -71 49 -137 124 -168 37
-16 38 -16 31 2 -31 70 -3 141 68 173 56 26 94 25 150 -4 l47 -23 0 24 c0 98
-134 186 -250 164z"/>
</g>
</svg>
