<?xml version="1.0" standalone="no"?>
<!DOCTYPE svg PUBLIC "-//W3C//DTD SVG 20010904//EN"
 "http://www.w3.org/TR/2001/REC-SVG-20010904/DTD/svg10.dtd">
<svg version="1.0" xmlns="http://www.w3.org/2000/svg"
 width="640.000000pt" height="640.000000pt" viewBox="0 0 640.000000 640.000000"
 preserveAspectRatio="xMidYMid meet">
<metadata>
Created by potrace 1.11, written by Peter Selinger 2001-2013
</metadata>
<g transform="translate(0.000000,640.000000) scale(0.100000,-0.100000)"
fill="#000000" stroke="none">
<path d="M3020 6334 c-300 -26 -470 -54 -675 -110 -891 -245 -1617 -841 -2020
-1659 -192 -388 -288 -749 -317 -1189 -26 -402 37 -840 178 -1234 63 -176 215
-481 321 -642 534 -810 1376 -1322 2353 -1431 148 -17 532 -17 680 0 977 109
1819 621 2353 1431 106 161 258 466 321 642 142 395 205 836 178 1238 -30 439
-126 798 -317 1185 -477 968 -1408 1622 -2494 1750 -124 15 -473 27 -561 19z
m487 -639 c277 -37 531 -115 778 -239 136 -69 296 -166 383 -234 l22 -17 -259
-271 -258 -271 1 166 c1 193 -13 258 -69 319 -33 36 -35 37 -107 37 -66 0 -83
-4 -151 -38 -88 -44 -227 -145 -371 -270 -55 -47 -103 -84 -107 -81 -5 2 -50
84 -100 182 -112 215 -186 338 -242 407 -122 150 -230 164 -303 39 -50 -85
-99 -300 -119 -522 -5 -45 -13 -79 -24 -91 -9 -10 -48 -29 -88 -41 l-72 -22
-43 25 c-24 14 -104 76 -178 137 -176 147 -230 186 -293 216 -65 30 -89 30
-124 0 -26 -23 -28 -29 -27 -103 2 -107 32 -215 152 -552 l31 -84 -35 -41
c-19 -22 -37 -51 -40 -63 -8 -30 -24 -29 -195 1 -299 54 -414 57 -465 13 -72
-63 8 -190 238 -378 204 -168 223 -193 194 -262 -13 -31 -30 -44 -143 -101
-161 -82 -240 -132 -310 -199 -98 -93 -120 -174 -69 -261 32 -55 108 -111 266
-195 63 -34 124 -71 137 -83 45 -42 33 -67 -123 -260 -106 -131 -154 -211
-154 -258 0 -35 26 -69 66 -86 47 -20 215 -17 349 5 61 10 112 17 114 15 3 -3
-11 -37 -30 -77 -35 -75 -86 -134 -348 -407 l-120 -125 -22 25 c-62 74 -190
285 -259 425 -119 243 -193 480 -237 765 -22 143 -25 537 -5 675 84 585 323
1075 722 1476 193 194 389 335 645 465 246 124 540 213 800 242 136 16 462 14
592 -3z m-606 -268 c75 -50 153 -169 314 -477 102 -194 126 -230 157 -230 11
0 43 22 71 48 244 224 435 351 544 360 46 4 54 1 77 -22 13 -15 30 -50 38 -79
14 -58 17 -241 5 -358 l-9 -77 -419 -438 c-230 -242 -423 -438 -429 -436 -5 1
-9 -2 -8 -7 2 -6 -47 -64 -109 -129 -106 -113 -115 -120 -160 -127 -78 -11
-252 -71 -347 -120 -224 -114 -373 -264 -455 -457 -23 -57 -26 -76 -27 -195
-1 -154 18 -120 -187 -333 -71 -74 -127 -125 -123 -113 10 33 -10 63 -42 63
-15 0 -81 -9 -147 -20 -134 -22 -281 -26 -320 -8 -16 7 -25 19 -25 34 0 28 63
123 156 234 133 160 163 219 140 275 -17 41 -55 69 -181 136 -114 60 -200 116
-233 151 -98 106 8 234 327 394 137 68 173 99 190 161 12 41 1 99 -26 140 -9
13 -68 66 -132 117 -197 159 -314 288 -298 329 14 37 133 31 416 -19 138 -24
207 -29 227 -16 6 4 21 25 32 48 11 22 28 46 37 54 9 7 23 26 30 41 17 33 15
40 -79 314 -72 209 -102 337 -91 391 6 33 9 35 33 29 46 -10 124 -65 282 -195
247 -204 280 -221 362 -186 18 8 55 22 81 31 26 9 55 28 64 41 9 15 22 83 34
177 31 254 68 397 122 462 34 41 60 44 108 12z m2224 -653 c133 -163 309 -477
390 -698 48 -131 108 -371 131 -521 22 -148 26 -541 6 -680 -84 -585 -323
-1075 -722 -1476 -391 -393 -920 -650 -1462 -708 -143 -16 -438 -13 -575 4
-208 28 -419 83 -623 164 -158 63 -415 214 -562 329 l-58 45 47 51 c26 28 106
112 178 187 116 122 136 138 185 154 30 10 86 31 124 47 38 15 71 26 74 23 6
-5 -12 -94 -63 -320 -59 -256 -51 -355 29 -355 61 0 162 87 328 280 50 58 94
109 98 114 5 4 31 -37 60 -93 113 -220 196 -214 305 23 l34 71 11 -30 c6 -16
29 -67 51 -112 122 -246 268 -214 421 94 35 71 79 172 98 225 19 54 40 98 46
98 6 0 87 -58 180 -128 228 -173 315 -233 402 -276 90 -45 160 -56 198 -32 80
53 67 196 -47 493 -46 122 -61 234 -39 312 l11 44 127 -7 c341 -17 445 -17
496 1 97 35 116 109 57 220 -40 74 -159 212 -274 318 -47 43 -91 91 -98 107
-17 42 3 100 52 153 40 43 64 55 179 90 141 43 286 150 334 247 63 127 11 236
-149 313 -79 38 -224 76 -363 95 -74 10 -97 18 -117 37 -34 35 -48 85 -43 162
l3 68 131 129 c137 135 176 192 176 259 0 64 -41 105 -127 127 -27 6 -52 13
-54 15 -5 3 361 383 370 383 3 0 24 -21 44 -46z m-337 -424 c37 -17 42 -23 42
-52 0 -59 -72 -155 -200 -264 -93 -80 -110 -113 -110 -213 0 -78 12 -122 47
-169 33 -44 63 -57 168 -71 242 -33 427 -108 470 -191 62 -120 -83 -279 -320
-352 -62 -19 -121 -44 -147 -64 -54 -39 -104 -111 -113 -164 -13 -78 -3 -94
174 -275 162 -167 222 -247 236 -311 8 -39 -10 -59 -68 -75 -41 -11 -63 -11
-462 7 -122 6 -132 5 -156 -15 -37 -29 -53 -102 -46 -210 4 -69 15 -110 52
-211 53 -139 95 -295 95 -347 0 -77 -33 -90 -130 -50 -76 32 -174 96 -395 262
-189 142 -240 175 -269 175 -22 0 -39 -31 -81 -145 -106 -285 -212 -445 -294
-445 -39 0 -82 58 -146 194 -45 97 -64 128 -81 132 -13 3 -27 3 -32 0 -4 -2
-27 -49 -50 -104 -42 -98 -92 -172 -116 -172 -21 0 -41 29 -96 138 -78 154
-107 159 -210 31 -91 -113 -248 -274 -289 -294 -28 -14 -35 -15 -43 -3 -13 19
0 114 39 283 71 313 76 365 30 386 -18 8 -37 4 -96 -21 -40 -17 -74 -30 -76
-28 -2 2 84 93 190 203 l193 200 38 -23 c130 -78 324 -149 483 -176 123 -21
339 -21 462 0 498 85 880 418 881 770 0 97 -19 171 -68 265 -88 167 -265 320
-480 413 -38 17 -72 35 -74 40 -2 5 203 227 456 492 l459 483 45 -5 c25 -3 64
-14 88 -24z m-1228 -1871 c115 -27 217 -78 268 -133 65 -71 68 -116 10 -182
-189 -215 -784 -223 -995 -14 -92 92 -59 187 92 267 166 88 415 113 625 62z"/>
<path d="M3023 4190 c-90 -19 -178 -86 -214 -164 -66 -146 56 -321 240 -343
97 -11 217 42 268 118 14 21 28 37 32 35 7 -5 10 19 13 102 2 70 -22 121 -83
176 -72 66 -167 93 -256 76z m202 -315 c31 -30 31 -40 -1 -71 -19 -20 -31 -24
-52 -19 -39 10 -52 24 -52 56 0 30 31 59 63 59 10 0 29 -11 42 -25z"/>
<path d="M2180 3994 c-107 -49 -164 -128 -165 -229 0 -94 54 -172 159 -228 33
-17 58 -22 126 -22 73 0 92 4 135 27 62 33 108 80 134 138 41 90 22 170 -59
251 -91 92 -216 116 -330 63z m266 -287 c21 -18 26 -29 21 -48 -15 -59 -102
-62 -122 -5 -8 25 -6 31 18 52 35 30 49 30 83 1z"/>
</g>
</svg>
