<?xml version="1.0" standalone="no"?>
<!DOCTYPE svg PUBLIC "-//W3C//DTD SVG 20010904//EN"
 "http://www.w3.org/TR/2001/REC-SVG-20010904/DTD/svg10.dtd">
<svg version="1.0" xmlns="http://www.w3.org/2000/svg"
 width="640.000000pt" height="640.000000pt" viewBox="0 0 640.000000 640.000000"
 preserveAspectRatio="xMidYMid meet">
<metadata>
Created by potrace 1.11, written by Peter Selinger 2001-2013
</metadata>
<g transform="translate(0.000000,640.000000) scale(0.100000,-0.100000)"
fill="#000000" stroke="none">
<path d="M2965 6334 c-437 -44 -749 -124 -1097 -279 -797 -356 -1427 -1044
-1703 -1860 -455 -1347 53 -2817 1247 -3608 414 -275 870 -444 1388 -514 190
-25 610 -25 800 0 518 70 974 239 1388 514 583 386 1028 960 1247 1608 455
1347 -53 2817 -1247 3608 -410 272 -868 443 -1378 512 -110 15 -553 28 -645
19z m634 -654 c259 -46 499 -126 721 -242 116 -60 325 -193 349 -222 12 -14
-6 -37 -135 -172 -82 -86 -196 -206 -254 -266 l-105 -111 0 169 c0 179 -8 226
-47 284 -38 56 -68 71 -133 71 -50 0 -73 -7 -150 -45 -96 -48 -246 -157 -385
-279 -47 -42 -88 -72 -92 -69 -4 4 -50 90 -103 191 -157 301 -248 434 -333
491 -161 106 -267 -60 -321 -504 -12 -96 -25 -164 -33 -171 -7 -7 -46 -22 -86
-35 l-72 -23 -54 36 c-30 20 -108 81 -174 135 -275 230 -354 269 -413 206 -22
-23 -24 -34 -23 -112 2 -99 37 -230 123 -465 28 -77 51 -147 51 -156 0 -10 -9
-26 -21 -37 -12 -10 -30 -36 -40 -56 -11 -21 -27 -38 -35 -38 -9 0 -98 14
-198 32 -299 52 -425 44 -458 -27 -29 -64 76 -196 304 -382 70 -57 135 -114
143 -126 22 -32 19 -99 -6 -125 -11 -12 -75 -50 -141 -83 -304 -153 -424 -277
-389 -406 21 -78 84 -131 281 -238 133 -72 170 -100 170 -128 0 -29 -30 -73
-158 -231 -112 -139 -141 -190 -142 -248 0 -44 40 -83 97 -94 50 -9 273 3 358
20 39 8 72 12 74 11 2 -2 -12 -37 -30 -77 -35 -76 -39 -81 -336 -392 l-133
-138 -20 23 c-92 109 -248 379 -318 553 -142 345 -196 620 -196 991 0 235 14
364 59 565 199 887 871 1609 1724 1855 261 75 416 94 721 91 189 -3 259 -8
359 -26z m1533 -917 c283 -367 458 -791 520 -1263 18 -142 15 -499 -6 -645
-83 -571 -325 -1061 -718 -1455 -197 -197 -412 -352 -653 -470 -233 -114 -451
-183 -710 -227 -172 -28 -584 -26 -758 5 -405 73 -759 225 -1069 459 l-87 66
148 156 c207 217 198 209 318 256 60 23 116 46 126 50 22 9 22 4 -33 -240 -68
-297 -74 -372 -35 -415 55 -61 166 11 354 229 55 64 107 125 115 136 13 18 17
12 66 -85 75 -150 118 -182 190 -145 35 18 63 56 110 152 l37 75 51 -103 c54
-109 69 -130 116 -167 34 -26 93 -29 135 -8 92 48 206 247 314 549 9 24 18 19
214 -130 293 -222 431 -302 521 -303 56 0 80 14 98 55 31 76 8 203 -77 431
-49 130 -52 145 -53 234 -1 63 4 103 13 119 13 23 15 23 125 17 435 -24 499
-20 557 32 88 80 10 233 -242 476 -65 63 -124 127 -129 142 -17 43 5 100 58
153 40 39 60 50 127 70 121 34 216 85 294 157 82 76 113 133 113 205 -2 151
-158 247 -495 303 -153 26 -179 40 -197 105 -14 52 -12 126 4 164 8 18 45 59
83 92 129 113 222 238 223 298 0 43 -32 86 -83 112 -28 14 -62 25 -75 25 -13
0 -22 5 -20 11 5 14 351 379 359 379 3 0 26 -26 51 -57z m-1904 -885 c19 -16
15 -66 -7 -78 -50 -26 -109 6 -97 53 10 41 66 54 104 25z m-772 -183 c15 -23
15 -27 0 -49 -21 -34 -52 -41 -82 -21 -34 22 -39 41 -20 70 23 35 79 35 102 0z"/>
</g>
</svg>
